<svg id="Layer_1" data-name="Layer 1" xmlns="http://www.w3.org/2000/svg" viewBox="0 0 512 512"><defs><style>.cls-1{fill:#f5ceb7;}.cls-2{fill:#f44747;}.cls-3{opacity:0.14;}.cls-4{fill:#17292d;}.cls-5{fill:#141f38;}</style></defs><title>syringe-filled</title><path class="cls-1" d="M499.2,110.81a25.6,25.6,0,0,1-43.7,18.11l-18.1-18.1-81.46,81.46,36.2,36.2L188.5,432.12a19.22,19.22,0,0,1-27.16,0l-13.58-13.58-13.58,13.58a19.21,19.21,0,0,1-27.15,0L79.88,405a19.2,19.2,0,0,1,0-27.15l13.58-13.58L79.88,350.66a19.2,19.2,0,0,1,0-27.15L283.53,119.86l36.21,36.2L401.19,74.6l-18.1-18.1a25.6,25.6,0,1,1,36.21-36.2L491.7,92.71A25.43,25.43,0,0,1,499.2,110.81Z"/><path class="cls-2" d="M174.92,437.74a19.08,19.08,0,0,1-13.58-5.62L79.88,350.66a19.2,19.2,0,0,1,0-27.15l95-95L283.53,337.08l-95,95A19.08,19.08,0,0,1,174.92,437.74Z"/><g class="cls-3"><path class="cls-4" d="M365,183.22,129.66,418.54l22.63,22.63a32,32,0,0,0,45.26,0l212.7-212.7Z"/></g><path class="cls-5" d="M500.75,83.65,428.35,11.25A38.4,38.4,0,0,0,374,65.55l9.05,9.05L319.73,138l-36.2-36.2h0l-18.1-18.1a12.8,12.8,0,0,0-18.1,18.1l18.1,18.1-90.51,90.51h0L93.47,291.81h0L70.83,314.45a31.92,31.92,0,0,0-9.27,25.15q.06.73.15,1.46c0,.28.07.57.11.85a31.82,31.82,0,0,0,6.81,15.37,32.37,32.37,0,0,0,2.2,2.43l4.53,4.53-4.53,4.53a32,32,0,0,0,0,45.25l4.53,4.53L3.75,490.15a12.8,12.8,0,1,0,18.1,18.1l71.61-71.61L98,441.17a32,32,0,0,0,45.26,0l4.53-4.53,4.53,4.53a32,32,0,0,0,45.26,0l29.71-29.71L392.14,246.57l18.1,18.1a12.8,12.8,0,0,0,18.1-18.1l-18.1-18.1h0L374,192.27l63.36-63.36,9.05,9.05a38.4,38.4,0,0,0,54.31-54.31ZM125.14,423.07a6.4,6.4,0,0,1-9.05,0l-13.57-13.57h0L88.93,395.91a6.41,6.41,0,0,1,0-9.05l4.53-4.53,36.2,36.2Zm54.31,0a6.4,6.4,0,0,1-9.05,0L88.93,341.61a6.69,6.69,0,0,1-.47-.53c-.09-.11-.17-.23-.26-.35l-.11-.16c-.11-.16-.21-.33-.29-.5h0a6.39,6.39,0,0,1-.7-2.36h0a6.46,6.46,0,0,1,0-1.22h0a6.38,6.38,0,0,1,1-2.87l.1-.14c.09-.13.18-.25.27-.37s.28-.33.44-.49l0,0L102.51,319l36.2,36.2a12.8,12.8,0,0,0,18.1-18.1l-36.2-36.2,18.1-18.1,18.1,18.1a12.8,12.8,0,0,0,18.1-18.1l-18.1-18.1,18.1-18.1,90.51,90.51ZM283.53,319,193,228.47l18.1-18.1,18.1,18.1a12.8,12.8,0,0,0,18.1-18.1l-18.1-18.1,18.1-18.1,36.2,36.2a12.8,12.8,0,0,0,18.1-18.1l-36.2-36.2,18.1-18.1,81.59,81.59,8.92,8.92Zm72.41-144.82-18.1-18.1,63.36-63.36,18.1,18.1Zm126.71-54.31a12.8,12.8,0,0,1-18.1,0L392.14,47.45a12.8,12.8,0,1,1,18.1-18.1l72.41,72.41a12.8,12.8,0,0,1,0,18.1Z"/></svg>